<svg width="24" height="24" xmlns="http://www.w3.org/2000/svg" fill-rule="evenodd" clip-rule="evenodd">
    <path fill="#6c2e12" d="M0 17v-14c0-1.24 1.037-2 2-2h20c1.239 0 2 1.037 2 2v18c0 .958-.758 2-2 2h-20c-1.24 0-2-1.037-2-2v-4zm2 4h20v-3h-20v3zm2-.336v-2.328l2.327 1.164-2.327 1.164zm3-.664h13v-1h-13v1zm-5-4h20v-13h-20v13zm10.199-11.362c-.103-.315.132-.638.46-.638.202 0 .392.128.459.332l2.846 7.143c.084.254-.054.529-.307.613-.254.085-.527-.053-.612-.307 0 0-1.797-.601-3.927.106l1.401 2.176c.145.214.044.507-.199.587-1.06.353-1.02.35-1.152.35-.179 0-.353-.076-.476-.215l-1.924-2.123c-1.048.33-2.234-.051-2.63-1.038-.025-.061-.664-1.68 1.108-2.55 4.271-2.097 4.953-4.436 4.953-4.436zm3.034.457c.759.32 1.395.932 1.73 1.758.334.825.303 1.709-.018 2.469l.738.314c.207-.493.317-1.027.317-1.571 0-1.584-.937-3.066-2.455-3.71l-.312.74zm-.532 1.261c.437.184.804.537.996 1.012.193.475.175.984-.009 1.422l.718.305c.263-.623.288-1.346.015-2.021-.274-.677-.794-1.177-1.416-1.439l-.304.721z"/>
</svg>